<?xml version="1.0" standalone="no"?>
<!DOCTYPE svg PUBLIC "-//W3C//DTD SVG 20010904//EN"
 "http://www.w3.org/TR/2001/REC-SVG-20010904/DTD/svg10.dtd">
<svg version="1.0" xmlns="http://www.w3.org/2000/svg"
 width="720.000000pt" height="939.000000pt" viewBox="0 0 720.000000 939.000000"
 preserveAspectRatio="xMidYMid meet">

<g transform="translate(0.000000,939.000000) scale(0.100000,-0.100000)"
fill="#2628A6" stroke="none">
<path fill="#000000" d="M0 4695 l0 -4695 3600 0 3600 0 0 4695 0 4695 -3600 0 -3600 0 0
-4695z m2260 3204 c84 -13 143 -43 191 -97 39 -45 69 -115 69 -163 0 -32 9
-40 75 -64 69 -25 200 -91 261 -131 29 -19 64 -34 80 -34 36 0 139 -26 176
-45 l28 -13 56 106 c95 181 117 214 162 246 60 43 96 54 177 55 121 1 204 -55
276 -185 22 -41 42 -74 43 -74 1 0 51 -7 110 -15 377 -53 709 -178 1021 -383
147 -96 189 -130 327 -255 l97 -88 168 26 c93 15 177 29 188 32 11 2 90 15
175 29 85 13 232 37 325 54 211 37 282 38 350 6 62 -29 128 -97 152 -156 25
-62 23 -170 -4 -230 -41 -91 -83 -121 -343 -240 -74 -35 -189 -88 -255 -119
-66 -32 -153 -72 -192 -91 -40 -18 -73 -37 -73 -41 0 -3 7 -24 16 -45 51 -121
108 -314 141 -475 l38 -184 -1 -295 0 -295 -38 -180 c-20 -99 -56 -234 -78
-300 -40 -117 -141 -349 -179 -412 l-20 -31 52 -99 c29 -54 53 -99 54 -101 1
-1 77 36 168 83 157 80 170 85 229 85 35 0 79 -5 98 -10 51 -14 130 -78 163
-132 32 -52 35 -72 63 -396 l16 -194 -22 -70 -23 -69 35 -82 c30 -70 37 -100
47 -212 18 -212 42 -556 42 -611 0 -76 -59 -289 -96 -343 -36 -55 -102 -106
-153 -121 -24 -6 -369 -10 -1004 -10 l-968 0 0 -57 c-1 -102 -55 -180 -140
-203 -26 -7 -292 -10 -804 -8 l-764 3 -43 30 c-57 40 -88 103 -89 177 l0 58
-1012 2 -1013 3 -40 22 c-93 50 -158 153 -156 248 0 56 39 301 71 450 11 50
35 185 55 300 20 116 40 226 45 245 5 19 23 121 39 225 60 382 93 559 111 594
24 47 73 96 129 129 40 24 57 27 131 27 84 0 86 -1 206 -62 128 -65 202 -127
224 -186 7 -18 15 -41 20 -52 5 -15 33 -29 91 -49 46 -16 107 -41 134 -56 28
-15 76 -30 109 -35 l60 -7 -56 61 c-73 78 -212 265 -270 362 -127 210 -221
437 -283 684 -61 240 -70 318 -70 618 0 230 -2 258 -17 262 -9 3 -43 23 -76
44 -51 33 -65 49 -93 106 -57 116 -48 222 27 321 l34 44 -20 39 c-24 48 -60
175 -60 214 0 15 -9 53 -20 85 -12 31 -25 89 -30 127 -5 39 -14 93 -20 120
-12 52 -7 136 12 215 14 61 79 199 119 255 32 45 32 45 30 158 -4 206 57 365
201 527 130 146 220 209 389 268 47 17 132 38 190 47 57 9 111 18 119 19 37 8
251 5 310 -5z"/>
<path  d="M1920 7870 c-167 -21 -350 -81 -454 -150 -120 -77 -261 -237 -318
-358 -59 -125 -86 -297 -63 -401 6 -26 -1 -42 -43 -105 -94 -141 -141 -309
-121 -431 5 -33 14 -87 18 -120 5 -33 16 -78 24 -100 8 -22 18 -65 22 -95 11
-89 23 -130 62 -213 l37 -77 -37 -38 c-49 -51 -70 -104 -70 -182 0 -112 56
-193 174 -250 l46 -23 -5 -221 c-4 -193 -2 -240 17 -371 44 -297 106 -510 216
-742 114 -241 246 -433 431 -630 l105 -112 -53 16 c-29 8 -60 19 -69 23 -8 5
-40 12 -70 16 -30 4 -72 17 -94 29 -22 12 -88 40 -147 61 -100 37 -106 41
-111 70 -3 17 -19 53 -36 81 -26 42 -45 58 -123 101 -151 83 -185 96 -258 95
-102 0 -188 -53 -235 -143 -8 -16 -33 -138 -55 -272 -62 -381 -79 -483 -106
-628 -13 -74 -42 -232 -63 -350 -22 -118 -52 -273 -66 -345 -35 -171 -32 -252
10 -321 33 -53 90 -98 145 -114 23 -6 388 -10 1038 -10 l1002 0 0 -52 c0 -109
42 -183 118 -207 28 -9 229 -11 787 -9 735 3 751 3 789 24 54 28 80 80 84 172
l4 72 988 0 987 0 49 26 c27 14 57 33 67 41 34 31 69 110 99 223 35 132 35
138 -1 608 -21 261 -21 263 -60 363 l-40 100 19 42 c24 51 25 132 6 398 -12
160 -17 194 -37 235 -50 99 -129 148 -239 148 -61 0 -75 -4 -231 -82 -91 -45
-172 -82 -180 -82 -8 0 -41 52 -74 115 l-60 115 57 112 c78 154 109 230 157
383 54 174 67 233 91 420 53 419 -1 844 -156 1227 -22 54 -33 93 -27 99 5 5
96 50 203 99 107 50 222 104 255 120 33 15 121 57 195 92 157 75 199 113 226
204 51 177 -86 346 -271 331 -67 -6 -345 -48 -475 -73 -47 -8 -202 -35 -345
-58 l-260 -42 -95 89 c-120 113 -228 198 -361 282 -124 80 -353 193 -464 230
-44 15 -93 33 -110 40 -56 24 -337 82 -487 100 l-48 6 -45 84 c-55 100 -96
139 -170 160 -97 29 -196 7 -262 -57 -18 -17 -69 -102 -114 -188 l-81 -157
-62 22 c-33 13 -74 28 -89 34 -16 6 -47 11 -69 11 -30 0 -58 11 -112 44 -79
50 -249 131 -305 146 -23 6 -27 13 -32 61 -3 30 -15 73 -27 95 -27 52 -99 116
-149 132 -48 16 -306 24 -393 12z m275 -259 l29 -6 -79 -90 c-44 -50 -86 -97
-94 -105 -12 -13 -11 -15 10 -21 13 -4 52 -7 86 -8 78 -1 90 -16 20 -26 -94
-12 -235 -16 -242 -5 -3 5 21 45 54 87 32 43 57 81 55 84 -4 7 -97 -12 -164
-33 -53 -17 -164 -70 -168 -80 -2 -5 -8 -8 -14 -8 -6 0 -26 -11 -44 -25 -55
-42 -61 -25 -13 36 53 67 -6 43 -126 -51 -74 -57 -85 -64 -85 -50 0 6 36 48
80 94 119 124 211 167 429 201 91 14 216 17 266 6z m1437 -331 c41 -80 88
-174 103 -210 16 -36 37 -77 47 -92 21 -31 25 -51 4 -22 -13 17 -15 17 -21 2
-6 -14 -11 -15 -31 -6 -17 8 -27 8 -38 -1 -8 -7 -17 -8 -20 -2 -7 10 -301 9
-312 -2 -4 -4 -13 1 -20 11 -12 16 -13 16 -19 0 -6 -16 -8 -16 -23 -2 -14 15
-5 38 107 261 108 218 124 244 135 227 7 -11 46 -84 88 -164z m812 -252 c-5
-8 0 -9 14 -6 12 4 20 2 16 -3 -3 -5 0 -9 5 -9 6 0 11 5 11 10 0 9 166 -71
275 -132 101 -57 330 -232 394 -301 l23 -26 -33 -5 c-19 -3 -88 -15 -154 -26
-66 -11 -199 -33 -296 -47 l-176 -27 -74 45 c-41 25 -102 58 -136 74 -35 16
-63 32 -63 37 0 12 14 10 29 -4 11 -11 13 -10 7 0 -4 7 0 15 11 19 20 7 36 29
40 56 3 21 -27 40 -126 82 -45 19 -71 36 -71 46 0 24 10 29 38 18 21 -8 23 -8
13 5 -18 22 -6 34 45 47 25 7 48 18 51 25 3 8 11 14 19 14 8 0 14 4 14 9 0 6
18 21 40 34 22 13 37 27 33 31 -4 4 0 4 10 0 24 -9 56 4 38 15 -12 8 -8 31 5
31 3 0 2 -5 -2 -12z m-2106 -9 c6 -1 12 -7 12 -12 0 -5 -48 -61 -107 -125 -60
-63 -103 -117 -96 -119 6 -2 30 -17 52 -33 22 -16 57 -36 78 -45 44 -18 103
-57 103 -67 0 -4 -20 -21 -45 -38 -25 -17 -45 -37 -45 -44 0 -13 27 -50 92
-128 55 -66 58 -93 13 -146 -39 -45 -123 -108 -132 -98 -3 3 0 32 6 64 8 43 8
67 1 87 -11 29 -11 29 -44 -38 -60 -119 -124 -179 -217 -205 l-37 -10 -4 77
c-4 51 -14 99 -33 146 -30 75 -36 83 -134 202 -85 105 -111 160 -111 243 0 36
4 80 9 98 11 37 4 40 -33 11 -31 -24 -56 -69 -56 -99 0 -38 -33 -18 -54 33
-18 44 -19 51 -5 75 42 77 209 139 448 166 24 3 46 8 50 11 5 6 252 0 289 -6z
m709 -203 c-3 -8 -18 -33 -32 -57 l-27 -42 -26 27 c-32 32 -24 53 29 72 46 17
62 17 56 0z m1273 -149 c0 -14 -35 -39 -43 -31 -6 6 24 42 36 43 4 1 7 -5 7
-12z m-2708 -144 c28 -25 22 -38 -32 -78 -100 -74 -155 -181 -179 -350 -16
-111 -20 -125 -33 -125 -8 0 -9 30 -5 106 12 187 93 381 187 447 30 21 39 21
62 0z m1998 -188 c95 -198 137 -290 145 -315 7 -22 6 -23 -9 -11 -14 12 -16
11 -17 -10 -1 -23 -1 -22 -14 6 l-14 30 -1 -33 c0 -18 -4 -31 -9 -28 -10 7
-117 -40 -126 -55 -23 -37 -31 35 -41 381 -6 237 -11 235 86 35z m-887 -23
c34 -35 37 -43 28 -61 -7 -12 -14 -21 -16 -21 -7 0 -111 144 -118 163 -8 23
47 -20 106 -81z m2887 -367 c85 -183 153 -423 180 -635 20 -165 7 -589 -19
-598 -4 -1 -6 -18 -4 -37 3 -30 1 -34 -27 -40 -21 -5 -35 -16 -41 -32 -7 -19
-14 -24 -31 -20 -15 4 -29 -1 -45 -19 -12 -13 -25 -24 -28 -24 -3 0 -9 0 -13
0 -5 0 -35 -20 -66 -45 -32 -25 -65 -45 -72 -45 -8 0 -14 -10 -14 -22 0 -19
-2 -20 -10 -8 -9 13 -10 13 -10 0 0 -13 -1 -13 -10 0 -8 12 -10 9 -10 -12 0
-15 -4 -30 -10 -33 -5 -3 -10 3 -10 15 0 12 -4 18 -10 15 -13 -8 -13 -7 9 66
59 193 88 474 71 684 -5 69 -14 134 -20 145 -5 10 -7 27 -3 37 3 11 -5 6 -20
-12 -18 -20 -27 -25 -28 -15 0 8 -5 4 -10 -9 -8 -20 -11 -22 -26 -10 -14 12
-15 11 -9 -11 7 -24 7 -25 -9 -5 -16 19 -17 19 -11 -15 6 -29 5 -32 -4 -17 -7
10 -9 30 -5 44 3 14 2 30 -3 36 -5 7 -15 41 -21 76 -16 82 -72 243 -122 348
-21 45 -39 84 -39 86 0 5 430 215 443 216 4 1 30 -46 57 -104z m-4067 -466
c84 -34 188 -76 232 -95 251 -105 392 -162 411 -168 26 -8 73 -56 55 -56 -11
0 -11 -3 -1 -15 11 -13 10 -14 -5 -9 -13 6 -16 4 -10 -5 6 -10 2 -11 -15 -6
-14 5 -20 3 -16 -3 3 -6 -4 -6 -18 1 -13 7 -22 15 -20 19 3 4 -2 5 -10 2 -9
-3 -16 -1 -16 5 0 6 -6 11 -14 11 -8 0 -86 36 -173 81 -87 45 -246 126 -353
181 -272 140 -281 151 -47 57z m113 -289 c8 0 14 5 14 11 0 5 4 8 10 4 5 -3 7
-12 3 -20 -3 -8 -1 -15 5 -15 6 0 13 6 15 13 3 6 6 3 6 -8 1 -14 4 -16 9 -7 6
9 18 7 50 -8 l42 -20 0 -98 c0 -53 5 -136 10 -184 12 -106 69 -362 81 -366 5
-2 9 -8 9 -14 0 -9 13 -43 39 -98 6 -14 9 -17 7 -8 -3 10 -1 28 4 40 8 22 9
21 11 -7 l1 -30 8 30 c4 17 8 22 9 11 1 -16 3 -17 18 -5 13 11 17 11 21 1 3
-9 10 -6 25 10 17 19 19 20 13 4 -4 -11 -3 -22 1 -25 4 -3 28 -46 52 -95 136
-274 349 -511 614 -683 98 -64 246 -139 322 -163 22 -7 45 -16 50 -21 6 -4 22
-10 35 -12 14 -2 32 -6 40 -10 46 -17 121 -37 139 -37 28 0 37 -20 9 -21 -21
0 -21 -1 -3 -8 18 -7 18 -8 -4 -27 -12 -10 -35 -29 -49 -41 l-27 -23 27 0 c15
0 29 -4 32 -9 3 -5 25 -12 48 -15 24 -3 59 -8 78 -11 19 -3 67 -9 105 -13 l70
-7 -47 -15 c-50 -15 -60 -25 -30 -33 14 -4 13 -5 -4 -6 -11 0 -25 4 -32 11 -9
9 -12 9 -12 -1 0 -7 -6 -11 -14 -8 -9 4 -12 0 -9 -11 3 -12 -6 -21 -29 -31
-18 -8 -59 -34 -90 -58 -31 -24 -61 -43 -67 -43 -6 0 -11 -4 -11 -10 0 -5 -7
-10 -15 -10 -7 0 -18 -6 -22 -13 -4 -7 -24 -22 -43 -33 -30 -17 -38 -19 -48
-7 -8 8 -23 11 -37 7 -28 -7 -101 13 -250 68 -733 272 -1279 963 -1364 1728
-22 193 -24 289 -7 315 10 15 22 22 31 19 11 -5 13 -2 9 10 -4 12 -2 15 9 11
8 -4 17 0 20 8 3 9 19 18 36 22 17 4 29 11 26 16 -4 5 2 6 11 2 14 -5 16 -3
11 12 -4 10 -4 27 -1 39 4 12 9 16 11 9 3 -7 11 -13 19 -13z m3238 -574 c-3
-7 2 -16 10 -19 17 -7 30 8 21 23 -3 6 -1 10 4 10 6 0 11 -12 11 -27 1 -34 25
-70 35 -53 5 8 11 5 19 -9 6 -11 23 -42 38 -68 14 -26 40 -73 57 -103 17 -30
39 -71 47 -90 9 -19 51 -100 94 -180 174 -327 262 -505 239 -484 -59 51 -561
514 -627 577 -47 45 -84 92 -103 130 -17 32 -25 56 -20 52 6 -3 11 -1 11 4 0
6 -5 11 -11 11 -6 0 -8 7 -5 16 5 14 4 15 -9 4 -8 -7 -15 -9 -16 -4 0 5 -1 24
-2 42 l-2 33 19 -23 c10 -13 17 -17 14 -9 -2 8 3 22 11 31 14 14 17 14 27 1
14 -17 34 -6 34 19 0 11 19 31 47 49 40 27 48 29 55 16 5 -8 13 -15 18 -15 17
0 11 21 -12 39 -12 10 -18 23 -14 29 10 16 17 15 10 -2z m79 -41 c-3 -9 -8
-14 -10 -11 -3 3 -2 9 2 15 9 16 15 13 8 -4z m-266 -77 c-3 -8 -6 -5 -6 6 -1
11 2 17 5 13 3 -3 4 -12 1 -19z m-2687 -61 c0 -5 -4 -5 -10 -2 -5 3 -10 14
-10 23 0 15 2 15 10 2 5 -8 10 -19 10 -23z m21 -10 c-8 -8 -11 -3 -11 19 1 25
2 27 11 11 8 -14 8 -22 0 -30z m-958 -983 c39 -20 74 -38 75 -40 2 -1 12 -117
23 -257 10 -140 23 -284 28 -318 5 -35 12 -98 16 -139 14 -168 76 -708 85
-745 5 -22 11 -58 12 -80 l3 -40 -87 -3 -86 -3 -7 90 c-4 50 -13 97 -19 106
-8 10 -40 17 -107 21 l-96 7 -17 -99 c-10 -55 -19 -105 -21 -111 -5 -14 -175
-19 -175 -5 0 4 14 79 31 167 17 88 46 247 64 354 19 106 37 201 40 211 9 29
152 876 155 918 0 6 15 0 83 -34z m5212 -6 c6 -49 25 -299 25 -339 0 -24 -7
-29 -62 -47 -122 -39 -191 -69 -200 -86 -11 -19 -7 -170 4 -181 4 -4 51 5 106
19 54 14 105 26 113 26 8 0 28 -34 47 -78 33 -77 33 -79 57 -414 l25 -336 -23
-89 -23 -88 -227 -3 -227 -2 0 179 0 180 33 5 c17 2 81 10 142 16 60 7 116 15
123 18 11 4 13 27 10 98 -1 51 -6 96 -11 100 -4 4 -53 2 -110 -5 -56 -7 -110
-13 -121 -14 -14 -2 -24 14 -46 69 l-27 71 5 309 c4 271 7 318 26 389 l21 80
160 82 c88 45 163 82 167 83 4 0 9 -19 13 -42z m-4831 -296 l70 -27 16 -95
c46 -259 85 -460 91 -460 3 0 10 24 16 53 6 28 27 133 47 231 19 99 39 183 44
188 5 5 40 -2 83 -16 l74 -25 3 -585 2 -586 -65 0 -65 0 -1 308 c-1 281 -2
303 -15 262 -12 -37 -64 -278 -107 -497 -6 -29 -13 -53 -17 -53 -6 0 -43 177
-100 480 l-28 145 -4 -320 -3 -320 -67 -3 -68 -3 0 676 c0 534 3 675 13 674 6
0 43 -12 81 -27z m4352 -27 c24 -55 24 -58 24 -380 l0 -324 -26 -73 c-15 -40
-36 -80 -47 -89 -19 -15 -19 -17 8 -140 15 -68 33 -142 40 -164 7 -22 16 -59
20 -83 l7 -43 -74 3 -73 3 -13 60 c-13 59 -69 294 -78 326 -3 11 -12 15 -29
11 l-25 -4 -2 -197 -3 -196 -68 -3 -67 -3 2 607 3 606 120 43 c66 23 149 54
185 68 36 14 66 26 68 26 2 1 14 -24 28 -54z m-606 -162 c0 -5 14 -98 30 -208
16 -110 45 -317 64 -460 20 -143 42 -300 51 -350 8 -49 15 -96 15 -102 0 -9
-20 -13 -69 -13 l-68 0 -12 75 -13 76 -81 -3 -82 -3 -11 -65 c-7 -36 -12 -68
-13 -72 -1 -5 -33 -8 -71 -8 l-71 0 6 38 c3 20 13 71 21 113 8 42 27 175 44
295 16 121 34 242 39 269 5 28 19 122 31 210 12 88 27 165 33 172 21 21 157
52 157 36z m-2989 -44 l56 -13 12 -65 c6 -36 31 -201 56 -366 24 -165 56 -372
70 -460 13 -88 25 -166 25 -173 0 -10 -17 -12 -67 -10 l-67 3 -13 64 c-7 36
-14 65 -16 66 -1 1 -37 5 -79 8 -87 7 -78 15 -98 -85 l-11 -58 -65 0 c-54 0
-64 3 -64 18 0 22 54 409 74 532 9 52 29 192 46 311 16 119 33 224 36 233 5
12 14 16 28 13 12 -3 46 -11 77 -18z m2699 -158 l0 -130 -47 -6 c-27 -4 -59
-10 -73 -14 l-25 -8 -3 -386 -2 -387 -65 0 -65 0 0 381 0 381 -35 -6 c-19 -3
-51 -9 -70 -12 l-35 -6 0 124 0 125 83 12 c45 7 116 21 157 31 106 27 111 28
148 29 l32 1 0 -129z m-2220 63 c91 -15 171 -31 178 -37 6 -5 12 -21 12 -35 0
-22 -117 -392 -141 -447 -10 -23 -69 -216 -69 -227 0 -5 43 -8 95 -8 l96 0 -3
-122 -3 -123 -75 -3 c-41 -1 -129 1 -195 5 l-120 8 2 47 c2 26 23 114 48 195
26 82 64 205 85 275 22 69 47 145 56 168 16 40 16 44 0 55 -9 7 -52 16 -96 19
l-80 7 0 131 0 130 23 -6 c12 -3 96 -18 187 -32z m1749 -141 c-1 -62 -5 -116
-9 -118 -4 -2 -58 -9 -121 -15 -63 -7 -116 -14 -118 -16 -7 -7 -17 -79 -13
-98 4 -18 11 -18 108 -13 l105 6 24 -56 c24 -52 25 -66 25 -237 0 -161 -2
-188 -22 -244 -16 -45 -28 -64 -42 -67 -12 -3 -88 -4 -171 -2 l-150 2 -3 117
-3 117 123 3 123 3 3 64 3 64 -103 -7 -104 -6 -27 55 c-26 54 -27 60 -27 235
0 167 2 183 24 233 13 30 28 57 33 60 5 3 76 13 158 22 82 9 151 18 153 20 2
2 10 1 18 -2 12 -4 14 -28 13 -120z m-1304 87 c176 -16 167 -12 193 -75 21
-54 22 -66 22 -406 0 -338 -1 -352 -22 -402 -12 -29 -27 -55 -32 -59 -6 -4
-78 -8 -161 -8 -82 0 -155 4 -161 8 -6 4 -21 29 -32 55 -21 47 -22 64 -22 423
-1 369 -1 375 22 424 26 58 18 56 193 40z m382 -30 l31 0 47 -137 c26 -76 59
-172 74 -213 l26 -75 3 212 2 211 61 7 c34 4 65 3 70 -2 5 -5 8 -197 7 -464
l-3 -454 -49 -3 c-27 -2 -54 2 -59 7 -10 10 -30 64 -130 343 -23 64 -44 113
-47 107 -3 -5 -5 -100 -3 -211 2 -112 1 -213 -2 -225 -5 -21 -11 -23 -70 -23
l-65 0 0 466 0 467 38 -7 c20 -3 51 -6 69 -6z m-477 -1110 c0 -17 -7 -20 -45
-20 -33 0 -45 -4 -45 -15 0 -11 11 -15 40 -15 29 0 40 -4 40 -15 0 -8 -10 -16
-22 -17 -13 0 -29 -2 -37 -2 -8 -1 -16 -7 -19 -14 -2 -8 10 -12 43 -12 39 0
46 -3 43 -17 -3 -15 -15 -18 -73 -18 l-70 0 -3 83 -3 82 76 0 c68 0 75 -2 75
-20z m270 0 c0 -17 -7 -20 -51 -20 -64 0 -63 -23 2 -30 42 -5 44 -6 47 -41 4
-49 -13 -61 -85 -57 -46 2 -59 7 -61 21 -3 14 4 17 42 17 25 0 48 5 51 10 3 6
0 11 -7 12 -7 0 -17 2 -23 3 -5 2 -22 3 -37 4 -26 1 -28 4 -28 44 0 24 3 47 7
50 3 4 37 7 75 7 61 0 68 -2 68 -20z m178 -34 c4 -57 -5 -66 -65 -66 -35 0
-42 -3 -45 -22 -2 -15 -11 -24 -25 -26 -22 -3 -23 -1 -23 83 l0 86 78 -3 77
-3 3 -49z m180 42 c7 -7 12 -39 12 -73 0 -34 -5 -66 -12 -73 -7 -7 -39 -12
-73 -12 -34 0 -66 5 -73 12 -16 16 -16 130 0 146 7 7 39 12 73 12 34 0 66 -5
73 -12z m190 -41 c2 -35 -1 -49 -12 -53 -14 -5 -14 -9 0 -35 14 -28 14 -29
-11 -29 -15 0 -31 9 -41 25 -20 31 -42 32 -46 3 -2 -15 -10 -23 -23 -23 -18 0
-20 8 -23 83 l-3 83 78 -3 78 -3 3 -48z m182 34 c0 -14 -8 -21 -27 -23 -27 -3
-28 -6 -31 -66 -3 -58 -5 -63 -24 -60 -19 3 -21 10 -22 63 -1 58 -2 60 -28 63
-20 2 -28 9 -28 23 0 17 8 19 80 19 72 0 80 -2 80 -19z m170 -1 c0 -17 -7 -20
-51 -20 -64 0 -63 -23 2 -30 42 -5 44 -6 47 -41 4 -49 -13 -61 -85 -57 -46 2
-59 7 -61 21 -3 14 4 17 42 17 46 0 68 13 40 24 -9 3 -31 6 -50 6 -33 0 -34 1
-34 43 0 24 3 47 7 50 3 4 37 7 75 7 61 0 68 -2 68 -20z m-1072 -67 c-2 -13
-13 -18 -38 -18 -25 0 -36 5 -38 18 -3 14 4 17 38 17 34 0 41 -3 38 -17z"/>
<path  d="M4355 6680 c3 -5 11 -10 16 -10 6 0 7 5 4 10 -3 6 -11 10 -16 10 -6
0 -7 -4 -4 -10z"/>
<path   d="M2060 6935 c-169 -38 -237 -70 -295 -138 -29 -33 -35 -49 -35 -85 0
-58 25 -91 97 -130 65 -34 179 -69 190 -58 4 4 1 19 -8 34 -15 26 -14 28 28
69 49 48 52 65 27 150 l-16 55 58 59 c32 32 56 60 53 62 -2 2 -47 -6 -99 -18z
m-65 -170 c48 -47 24 -100 -65 -145 -31 -16 -45 -19 -53 -11 -8 8 -5 16 11 27
12 8 29 28 37 44 14 28 14 31 -15 63 -16 19 -30 37 -30 41 0 3 20 6 45 6 35 0
52 -6 70 -25z m-95 -55 c0 -11 -7 -20 -15 -20 -15 0 -21 21 -8 33 12 13 23 7
23 -13z"/>
<path  d="M5402 5380 c0 -14 2 -19 5 -12 2 6 2 18 0 25 -3 6 -5 1 -5 -13z"/>
<path  d="M5665 4600 c-3 -5 -1 -10 4 -10 6 0 11 5 11 10 0 6 -2 10 -4 10 -3 0
-8 -4 -11 -10z"/>
<path  d="M2184 5154 c-17 -14 -17 -15 -1 -10 10 3 23 6 28 6 5 0 9 5 9 10 0
14 -13 12 -36 -6z"/>
<path  d="M1630 5180 c0 -5 7 -10 15 -10 8 0 15 -4 15 -10 0 -5 5 -10 11 -10
14 0 2 18 -22 30 -13 7 -19 7 -19 0z"/>
<path d="M3290 3329 c0 -5 5 -7 10 -4 6 3 10 8 10 11 0 2 -4 4 -10 4 -5 0 -10
-5 -10 -11z"/>
<path d="M3138 2953 c7 -3 16 -2 19 1 4 3 -2 6 -13 5 -11 0 -14 -3 -6 -6z"/>
<path d="M4873 4534 c-15 -16 -16 -24 -4 -24 8 0 24 30 19 35 -2 2 -9 -3 -15
-11z"/>
<path  d="M1021 3424 c0 -11 3 -14 6 -6 3 7 2 16 -1 19 -3 4 -6 -2 -5 -13z"/>
<path d="M1042 2802 c-45 -287 -61 -396 -59 -398 1 -1 27 -5 58 -9 l56 -7 -4
59 c-2 32 -8 111 -13 175 -6 64 -10 143 -10 175 0 90 -14 92 -28 5z"/>
<path  d="M879 2643 c-5 -13 -9 -33 -9 -43 0 -10 -11 -75 -25 -144 -43 -217
-66 -371 -55 -374 6 -2 8 -7 6 -10 -2 -4 7 -8 20 -8 13 -1 24 2 24 7 0 14 17
11 34 -7 15 -14 16 -14 16 3 0 12 3 14 8 6 5 -8 13 -9 22 -3 8 6 20 10 25 10
6 0 3 -5 -5 -10 -22 -14 5 -13 32 1 15 8 22 8 28 -1 4 -6 16 -10 26 -9 11 2
29 -1 42 -5 27 -9 84 2 76 15 -3 5 0 9 5 9 6 0 11 -4 11 -10 0 -13 37 -13 45
0 4 7 13 7 26 0 13 -8 19 -7 19 0 0 6 5 8 10 5 7 -4 9 12 5 47 -3 29 -14 140
-25 247 -11 107 -23 198 -27 201 -12 11 -105 32 -111 25 -3 -3 -1 -54 5 -113
6 -59 9 -110 7 -113 -6 -10 -138 12 -146 24 -4 7 -6 18 -3 26 10 26 34 205 29
211 -3 3 -28 12 -55 21 l-50 17 -10 -25z m241 -573 c0 -5 -12 -10 -27 -9 l-28
1 25 8 c14 4 26 8 28 9 1 1 2 -3 2 -9z"/>
<path d="M6220 2633 c-63 -17 -151 -41 -195 -53 -115 -30 -112 -27 -85 -97 13
-32 26 -62 30 -66 4 -5 47 -1 96 7 129 23 147 22 161 -11 16 -41 24 -145 13
-185 l-10 -35 -88 -7 c-48 -4 -115 -9 -149 -13 l-63 -6 1 -66 c1 -36 3 -58 6
-48 4 17 19 18 198 16 106 -1 198 1 203 5 6 3 17 4 25 0 17 -6 32 40 20 59 -4
7 -8 44 -9 82 -1 75 -21 332 -32 405 l-7 45 -115 -32z"/>
<path d="M1390 2333 c0 -104 3 -205 6 -225 6 -34 10 -38 35 -38 21 0 29 -5 30
-17 0 -15 2 -15 9 2 5 11 9 117 9 236 l1 217 -31 6 c-62 12 -59 22 -59 -181z"/>
<path d="M1530 2468 c0 -13 5 -41 11 -63 5 -22 22 -99 38 -171 15 -72 35 -141
44 -155 14 -19 17 -20 17 -6 0 10 4 16 10 12 5 -3 6 -13 3 -23 -3 -9 -3 -14 1
-10 16 14 102 376 91 386 -2 3 -44 13 -92 24 -48 10 -96 21 -105 24 -14 4 -18
0 -18 -18z"/>
<path d="M1800 2263 c0 -93 4 -173 8 -179 4 -6 21 -13 39 -16 26 -4 33 -1 37
16 6 25 11 325 5 330 -2 2 -23 6 -46 10 l-43 6 0 -167z"/>
<path d="M5608 2783 l-58 -15 0 -133 0 -133 66 13 c36 7 70 17 77 24 14 14 23
174 13 227 -8 39 -12 40 -98 17z"/>
<path d="M5725 2505 c-49 -13 -128 -31 -175 -40 -130 -26 -119 -8 -114 -202 3
-93 8 -179 10 -193 5 -22 7 -23 16 -7 7 13 13 15 22 8 24 -20 35 5 38 84 l3
80 43 6 c52 7 53 5 78 -109 13 -64 20 -81 28 -70 6 8 25 13 44 12 18 -1 34 2
37 6 3 4 -4 43 -15 85 -25 97 -25 95 3 95 19 0 26 13 55 98 31 93 40 156 25
165 -5 3 -48 -5 -98 -18z"/>
<path d="M5106 2427 c-10 -78 -21 -159 -23 -180 l-5 -38 38 6 c64 11 63 10 53
53 -4 21 -16 97 -24 168 -9 71 -17 130 -19 131 -1 1 -10 -62 -20 -140z"/>
<path d="M5214 2396 l-40 -11 12 -85 c7 -47 10 -88 8 -92 -8 -13 -131 -26
-140 -15 -1 1 4 40 12 86 7 47 12 87 9 89 -2 2 -24 1 -48 -2 l-45 -7 -8 -52
c-4 -29 -9 -63 -10 -77 -2 -14 -7 -50 -13 -82 -10 -58 -5 -110 9 -87 7 10 159
19 331 19 12 0 16 11 17 41 1 23 -2 47 -7 53 -5 6 -9 22 -9 36 1 37 -22 184
-30 191 -4 3 -25 1 -48 -5z"/>
<path d="M2191 2529 c-1 -9 -10 -83 -21 -165 -11 -81 -18 -150 -15 -152 2 -2
25 -7 50 -10 l46 -5 -5 34 c-3 19 -12 86 -20 149 -13 104 -34 191 -35 149z"/>
<path d="M2036 2240 c-9 -77 -15 -148 -12 -158 5 -15 22 -17 153 -17 82 0 151
4 155 9 4 6 13 4 22 -4 9 -7 20 -10 23 -6 4 4 1 11 -6 15 -7 5 -10 14 -6 20 3
7 1 61 -6 122 -12 102 -15 112 -36 120 -14 5 -35 9 -49 9 -20 0 -24 -5 -24
-31 0 -16 5 -50 11 -74 17 -67 11 -74 -58 -63 -86 13 -82 6 -65 97 9 44 14 82
11 85 -2 2 -25 6 -50 10 l-46 7 -17 -141z"/>
<path d="M4725 2323 c-71 -13 -65 -1 -65 -139 0 -120 1 -124 19 -114 30 15 59
12 63 -7 2 -10 7 42 11 116 5 74 4 137 0 141 -4 4 -17 5 -28 3z"/>
<path d="M2606 2273 c-3 -16 -15 -62 -26 -102 -20 -73 -19 -111 2 -111 5 0 8
7 4 15 -3 8 -1 15 4 15 6 0 10 -4 10 -8 0 -5 13 -7 28 -4 21 3 30 12 38 35 6
18 22 63 35 100 28 78 23 87 -47 87 -37 0 -42 -3 -48 -27z"/>
<path d="M2620 2059 c0 -5 5 -7 10 -4 6 3 10 8 10 11 0 2 -4 4 -10 4 -5 0 -10
-5 -10 -11z"/>
<path d="M4310 2280 c-36 -4 -97 -8 -137 -9 -39 0 -74 -5 -78 -10 -3 -5 0 -21
6 -35 12 -25 14 -26 112 -26 115 0 126 -7 127 -77 0 -62 7 -76 32 -59 10 8 28
12 39 9 18 -5 19 1 19 106 l0 111 -27 -2 c-16 0 -57 -4 -93 -8z"/>
<path d="M3067 2515 c-9 -21 -9 -428 -1 -449 5 -13 22 -16 80 -16 l74 0 0 235
0 235 -29 0 c-15 0 -48 3 -73 6 -37 5 -46 3 -51 -11z"/>
<path d="M2950 2160 c0 -93 2 -109 15 -104 8 4 16 16 16 28 1 20 2 20 6 1 7
-27 23 -44 23 -23 0 9 7 18 15 22 12 4 15 25 15 96 l0 90 -45 0 -45 0 0 -110z"/>
<path d="M3240 2196 c0 -87 9 -125 29 -125 9 0 28 -2 44 -4 l27 -4 0 98 0 99
-50 0 -50 0 0 -64z"/>
<path d="M3031 2054 c0 -11 3 -14 6 -6 3 7 2 16 -1 19 -3 4 -6 -2 -5 -13z"/>
<path d="M3445 2238 c-3 -7 -1 -49 3 -93 l7 -79 35 -1 35 0 3 93 3 92 -41 0
c-23 0 -43 -5 -45 -12z"/>
<path d="M3600 2239 c0 -5 11 -35 25 -64 13 -30 27 -66 31 -80 3 -14 10 -28
15 -31 5 -3 7 -11 3 -17 -3 -7 1 -4 9 6 16 20 103 32 113 16 16 -27 24 1 24
86 l0 95 -45 0 c-38 0 -45 -3 -45 -20 0 -11 -4 -20 -10 -20 -5 0 -10 9 -10 20
0 18 -7 20 -55 20 -32 0 -55 -4 -55 -11z"/>
<path d="M3395 1590 c-10 -16 4 -30 31 -30 17 0 24 5 24 20 0 15 -7 20 -24 20
-14 0 -28 -4 -31 -10z"/>
<path d="M3578 1573 c-6 -46 1 -63 28 -63 22 0 24 4 24 45 0 41 -2 45 -24 45
-18 0 -25 -6 -28 -27z"/>
<path  d="M3760 1580 c0 -16 7 -20 30 -20 23 0 30 4 30 20 0 16 -7 20 -30 20
-23 0 -30 -4 -30 -20z"/>
</g>
</svg>
