<svg xmlns="http://www.w3.org/2000/svg" viewBox="0 0 500 500"><g id="freepik--Floor--inject-91"><line x1="15.38" y1="463.2" x2="478.82" y2="463.2" style="fill:none;stroke:#263238;stroke-linecap:round;stroke-linejoin:round"></line></g><g id="freepik--Shine--inject-91"><line x1="155.77" y1="159.31" x2="146.82" y2="167.17" style="fill:none;stroke:#263238;stroke-linecap:round;stroke-linejoin:round"></line><line x1="235.42" y1="89.28" x2="161.28" y2="154.46" style="fill:none;stroke:#263238;stroke-linecap:round;stroke-linejoin:round"></line><line x1="227.63" y1="87.34" x2="177" y2="105.83" style="fill:none;stroke:#263238;stroke-linecap:round;stroke-linejoin:round"></line><line x1="181.26" y1="79.76" x2="148.77" y2="82.47" style="fill:none;stroke:#263238;stroke-linecap:round;stroke-linejoin:round"></line><line x1="218.86" y1="76.63" x2="184.89" y2="79.46" style="fill:none;stroke:#263238;stroke-linecap:round;stroke-linejoin:round"></line><line x1="131.87" y1="33.53" x2="123.45" y2="30.87" style="fill:none;stroke:#263238;stroke-linecap:round;stroke-linejoin:round"></line><line x1="204.46" y1="56.45" x2="134.3" y2="34.29" style="fill:none;stroke:#263238;stroke-linecap:round;stroke-linejoin:round"></line><line x1="215.94" y1="60.08" x2="209.17" y2="57.94" style="fill:none;stroke:#263238;stroke-linecap:round;stroke-linejoin:round"></line><line x1="352.06" y1="159.31" x2="361.01" y2="167.17" style="fill:none;stroke:#263238;stroke-linecap:round;stroke-linejoin:round"></line><line x1="272.41" y1="89.28" x2="346.55" y2="154.46" style="fill:none;stroke:#263238;stroke-linecap:round;stroke-linejoin:round"></line><line x1="280.2" y1="87.34" x2="330.83" y2="105.83" style="fill:none;stroke:#263238;stroke-linecap:round;stroke-linejoin:round"></line><line x1="326.57" y1="79.76" x2="359.06" y2="82.47" style="fill:none;stroke:#263238;stroke-linecap:round;stroke-linejoin:round"></line><line x1="288.96" y1="76.63" x2="322.94" y2="79.46" style="fill:none;stroke:#263238;stroke-linecap:round;stroke-linejoin:round"></line><line x1="375.96" y1="33.53" x2="384.38" y2="30.87" style="fill:none;stroke:#263238;stroke-linecap:round;stroke-linejoin:round"></line><line x1="303.37" y1="56.45" x2="373.53" y2="34.29" style="fill:none;stroke:#263238;stroke-linecap:round;stroke-linejoin:round"></line><line x1="291.88" y1="60.08" x2="298.66" y2="57.94" style="fill:none;stroke:#263238;stroke-linecap:round;stroke-linejoin:round"></line></g><g id="freepik--Character--inject-91"><path d="M241.84,213.92s-4-1.18-3.77,2.36,4.47,5.89,4.47,5.89Z" style="fill:#fff;stroke:#263238;stroke-linecap:round;stroke-linejoin:round"></path><path d="M266.34,213.92s3.3-1.65,3.3,1.42-3.53,6.12-3.53,6.12Z" style="fill:#fff;stroke:#263238;stroke-linecap:round;stroke-linejoin:round"></path><path d="M241.37,204.26s.23,16.73,1.17,19.8,3.77,7.07,6.37,7.07,11.31-.71,13-1.65a10.22,10.22,0,0,0,4.24-8c0-3.77.47-13.19.47-13.19a7.65,7.65,0,0,0,2.36-3.07c.94-2.12-2.36-5.18-3.07-5.42s-3.3-.94-3.3-.94,1.65-1.41,1.18-2.59-4.95-1.89-6.83-1.89a10.24,10.24,0,0,0-4.24,1.42s-7.54-.24-9.9,2.59A6.65,6.65,0,0,0,241.37,204.26Z" style="fill:#263238;stroke:#263238;stroke-linecap:round;stroke-linejoin:round"></path><path d="M267.76,234.42l-30.17.48s1.42-4.48,3.07-5,18.61-.95,22.15-.47S267.76,234.42,267.76,234.42Z" style="fill:#2518DC;stroke:#263238;stroke-linecap:round;stroke-linejoin:round"></path><path d="M257.25,433.45s-1.28,13.7-.19,14.13,4.35,2,12.18,0c2.08-.52-1.74-14.57-1.74-14.57S262.44,436.07,257.25,433.45Z" style="fill:#263238;stroke:#263238;stroke-linecap:round;stroke-linejoin:round"></path><path d="M221,327.37,225,387s-2.4,11-.2,20.74,5.78,44.07,5.78,44.07,1.79-3.39,7.78-4,7.17,1.79,7.17,1.79-.39-25.92-.39-28.91,2.39-21.93,2.19-27.72a83.93,83.93,0,0,0-1.6-12.36l1.4-36.09,3.19-.4s-2.19,29.71-.8,36.49,4.79,27.92,5,29.71,2.79,23.13,2.79,23.13,5.18,1.4,7.58,1.2a6.64,6.64,0,0,0,4-2s4.38-32.11,4-37.09-5-16.95-5-17.95-1.2-7.78-1.2-7.78,8.38-23.33,9.77-31.7S278,326,278,326s-23.73,3.79-35.5,3.79A101.15,101.15,0,0,1,221,327.37Z" style="fill:#2518DC;stroke:#263238;stroke-linecap:round;stroke-linejoin:round"></path><path d="M231.69,386.68a78.5,78.5,0,0,1,10-7.1" style="fill:none;stroke:#263238;stroke-linecap:round;stroke-linejoin:round"></path><path d="M226.89,390.91s1-1,2.76-2.49" style="fill:none;stroke:#263238;stroke-linecap:round;stroke-linejoin:round"></path><line x1="231.24" y1="382.78" x2="243.73" y2="374.36" style="fill:none;stroke:#263238;stroke-linecap:round;stroke-linejoin:round"></line><path d="M278,326s-23.73,3.79-35.5,3.79A101.15,101.15,0,0,1,221,327.37l.24,3.55c3.45,2.6,9.59,7.36,14.63,12,5.94,5.44,9.7,7.73,11,8.43l.26-6.81,3.19-.4s-2.19,29.71-.8,36.49c.65,3.12,1.71,9.29,2.69,15.22,1.47-4.63,4.28-10.17,9.44-10.7a14.61,14.61,0,0,1,9.3,2.32c-1.42-4.64-3.08-9.23-3.08-9.83,0-1-1.2-7.78-1.2-7.78s8.38-23.33,9.77-31.7S278,326,278,326Z" style="fill:#263238;stroke:#263238;stroke-linecap:round;stroke-linejoin:round"></path><path d="M214,315.67s1.47,2.78,2.45,3.11,1.8,3.27,1.8,6.21-1,3.27-1,3.27a4.58,4.58,0,0,1,.81,3.93c-.65,2.12-4.9,3.59-6.7,4.25s-4.58-2.29-5.72-3.76-.33-13.25-.33-13.25S213.35,317.31,214,315.67Z" style="fill:#fff;stroke:#263238;stroke-linecap:round;stroke-linejoin:round"></path><path d="M217.28,328.26s-3.27,1.31-3.76,1.64-2.29-1.8-1.64-2.45a33,33,0,0,1,3.11-2.29" style="fill:none;stroke:#263238;stroke-linecap:round;stroke-linejoin:round"></path><path d="M210.57,322.38s3.44.81,2.29,3.92" style="fill:none;stroke:#263238;stroke-linecap:round;stroke-linejoin:round"></path><path d="M212.53,329.41s-3.43,1.31-3.43,2.61,1.64,3,2.62,2.78-.17-1.47-.17-1.47" style="fill:none;stroke:#263238;stroke-linecap:round;stroke-linejoin:round"></path><path d="M294.29,322.38a32.69,32.69,0,0,0-3.6,5.07c-.81,1.79-2.45,3.43-2.12,4.57s.49,2,.49,2-1.47,3.43,0,4.41a5.91,5.91,0,0,0,3.27,1.15c.65,0,3.27,2.12,5.07,1.79s4.41-1.14,4.58-6.7.81-11.94.81-11.94S296.91,322.38,294.29,322.38Z" style="fill:none;stroke:#263238;stroke-linecap:round;stroke-linejoin:round"></path><path d="M289.06,334s4.41,2.78,5.72,2.78,2.29-2,1.31-2.95a33.82,33.82,0,0,0-3.76-2.78" style="fill:none;stroke:#263238;stroke-linecap:round;stroke-linejoin:round"></path><path d="M297.72,327.61s-2.61,2.94-1.63,6.21" style="fill:none;stroke:#263238;stroke-linecap:round;stroke-linejoin:round"></path><path d="M296.58,334.8s3.11.82,3.27,1.8-.16,2.62-.82,2.62-1-1.15-1-1.15" style="fill:none;stroke:#263238;stroke-linecap:round;stroke-linejoin:round"></path><path d="M305.23,321.15a9.25,9.25,0,0,1-4,4.24c-2.84,1.41-7.78-2.36-7.78-2.36l-5.19-30.4-11.31-17L276,300.41s4.48,27.33,3.78,27.81-11.08,5.18-28.52,7.07-32.75-6.36-32.75-6.36l7.3-28.29-3.3-21-8.13,12.74,1.06,21.9s-1.88,4.95-5.18,5.66a16.58,16.58,0,0,1-6.37,0,.45.45,0,0,0,0-.08c0-.14-.07-.46-.15-.93,0-.21-.07-.46-.12-.74-.06-.43-.15-.94-.24-1.5s-.14-.89-.22-1.38-.16-1-.25-1.54h0c-1.27-7.92-3.32-20.73-3.48-21.87v-.05c0-2.21,15.32-41.67,16.25-42.6s1-4,4.25-6.13,21-9.42,21-9.42c6.82-2.13,25.68.7,25.68.7s7.31,4.24,8.25,4.72,11.07,6.59,13.43,8,2.59,4,3.53,7.07,7.78,25.69,9.9,29.69S305.23,321.15,305.23,321.15Z" style="fill:#2518DC;stroke:#263238;stroke-linecap:round;stroke-linejoin:round"></path><path d="M214.38,292.41l1.06,21.9s-1.88,4.95-5.18,5.66a16.58,16.58,0,0,1-6.37,0,.45.45,0,0,0,0-.08c0-.14-.07-.46-.15-.93,0-.21-.07-.47-.12-.74-.06-.43-.15-.94-.24-1.5s-.14-.89-.22-1.38-.16-1-.25-1.54h0c-1.27-7.92-3.32-20.73-3.48-21.87v-.05c1.36.77,3.89,2,5.51,1.73,1.23-.23,2.72-1.87,3.81-3.31.22-.66.4-1.15.5-1.44,1.18-3.17,8.09-22.38,8.09-22.38l5.18,13.2Z" style="fill:#263238;stroke:#263238;stroke-linecap:round;stroke-linejoin:round"></path><line x1="218.27" y1="257.75" x2="222.51" y2="279.67" style="fill:none;stroke:#263238;stroke-linecap:round;stroke-linejoin:round"></line><polyline points="280.33 260.46 276.95 275.66 284.02 260.58" style="fill:none;stroke:#263238;stroke-linecap:round;stroke-linejoin:round"></polyline><line x1="281.66" y1="254.46" x2="281.12" y2="256.88" style="fill:none;stroke:#263238;stroke-linecap:round;stroke-linejoin:round"></line><path d="M249.61,262.7s13.67,25,16.26,26.63" style="fill:none;stroke:#263238;stroke-linecap:round;stroke-linejoin:round"></path><line x1="264.25" y1="291.45" x2="266.11" y2="293.1" style="fill:none;stroke:#263238;stroke-linecap:round;stroke-linejoin:round"></line><line x1="253.62" y1="282.03" x2="262.32" y2="289.75" style="fill:none;stroke:#263238;stroke-linecap:round;stroke-linejoin:round"></line><path d="M305.23,321.15s-.38-8.94-1.05-18.11c-4.08-1.4-8.77-3.36-10.5-5.46-3.3-4-15.32-20.27-15.32-20.27l0,.51,9.87,14.81,5.18,30.4s4.95,3.77,7.78,2.36A9.24,9.24,0,0,0,305.23,321.15Z" style="fill:#263238;stroke:#263238;stroke-linecap:round;stroke-linejoin:round"></path><path d="M230.53,451.8l-.44,7.09s-3.48,4.79-2.61,7.4,4.35,2.17,9.57,2.17,8.92-3.69,8.92-7-.49-11.9-.49-11.9-2.22-2-7.17-1.79A11,11,0,0,0,230.53,451.8Z" style="fill:#263238;stroke:#263238;stroke-linecap:round;stroke-linejoin:round"></path><path d="M244.7,464.91a7.07,7.07,0,0,0-6.56-1.23c-3.82,1.27-6.12,3.6-8.93,4.33,1.68.64,4.37.45,7.84.45A9.55,9.55,0,0,0,244.7,464.91Z" style="fill:#fff;stroke:#263238;stroke-linecap:round;stroke-linejoin:round"></path></g><g id="freepik--Trophy--inject-91"><rect x="249.53" y="80.85" width="5.36" height="22.82" style="fill:#2518DC;stroke:#263238;stroke-linecap:round;stroke-linejoin:round"></rect><polygon points="260.13 108.56 244.29 108.56 246.16 99.71 258.26 99.71 260.13 108.56" style="fill:#2518DC;stroke:#263238;stroke-linecap:round;stroke-linejoin:round"></polygon><polygon points="269.68 112.29 234.75 112.29 238.47 104.14 265.95 104.14 269.68 112.29" style="fill:#2518DC;stroke:#263238;stroke-linecap:round;stroke-linejoin:round"></polygon><path d="M234.51,56.7a12.57,12.57,0,1,0,12.35,12.57A12.46,12.46,0,0,0,234.51,56.7Zm0,22a9.38,9.38,0,1,1,9.21-9.38A9.29,9.29,0,0,1,234.51,78.65Z" style="fill:#2518DC;stroke:#263238;stroke-linecap:round;stroke-linejoin:round"></path><path d="M271.77,56.7a12.57,12.57,0,1,0,12.34,12.57A12.46,12.46,0,0,0,271.77,56.7Zm0,22A9.38,9.38,0,1,1,281,69.27,9.29,9.29,0,0,1,271.77,78.65Z" style="fill:#2518DC;stroke:#263238;stroke-linecap:round;stroke-linejoin:round"></path><path d="M252.21,87.14h0a15.6,15.6,0,0,1-15.6-15.6V55.47h31.2V71.54A15.6,15.6,0,0,1,252.21,87.14Z" style="fill:#2518DC;stroke:#263238;stroke-linecap:round;stroke-linejoin:round"></path><polygon points="241.34 64.04 247.94 75.71 249.69 71.8 253.97 72.5 245.02 61.27 241.34 64.04" style="fill:#263238;stroke:#263238;stroke-linecap:round;stroke-linejoin:round"></polygon><polygon points="240.99 62.66 238.69 75.87 242.52 73.95 245.39 77.21 245.58 62.85 240.99 62.66" style="fill:#263238;stroke:#263238;stroke-linecap:round;stroke-linejoin:round"></polygon><path d="M250.75,59.21a6.7,6.7,0,1,0-6.7,6.7A6.69,6.69,0,0,0,250.75,59.21Z" style="fill:#fff;stroke:#263238;stroke-linecap:round;stroke-linejoin:round"></path><path d="M249.22,59.21a5.17,5.17,0,1,0-5.17,5.17A5.16,5.16,0,0,0,249.22,59.21Z" style="fill:#fff;stroke:#263238;stroke-linecap:round;stroke-linejoin:round"></path><path d="M242.54,56.61a1,1,0,0,0,1.16-.84h.71V62.5h-1V57.36h-.82Z" style="fill:#263238"></path></g></svg>